<svg viewBox="0 0 25 25" fill="none" xmlns="http://www.w3.org/2000/svg">
<path d="M16.3979 12.5L24.1927 20.2948C24.7104 20.8125 25 21.5135 25 22.2448C24.9964 22.9744 24.705 23.6732 24.1891 24.1891C23.6732 24.705 22.9744 24.9964 22.2448 25C21.8827 25.0001 21.5241 24.9289 21.1895 24.7904C20.8549 24.6519 20.5509 24.4488 20.2948 24.1927L12.5 16.3979L4.70521 24.1927C4.44914 24.4488 4.14513 24.6519 3.81054 24.7904C3.47595 24.9289 3.11734 25.0001 2.75521 25C2.02558 24.9964 1.32685 24.705 0.810915 24.1891C0.294983 23.6732 0.00356009 22.9744 1.93223e-07 22.2448C1.93223e-07 21.5135 0.289583 20.8125 0.807292 20.2948L8.60208 12.5L0.807292 4.70521C0.551226 4.44914 0.34813 4.14513 0.209611 3.81054C0.0710917 3.47595 -0.000135398 3.11734 1.93223e-07 2.75521C0.00356009 2.02558 0.294983 1.32685 0.810915 0.810915C1.32685 0.294983 2.02558 0.0035599 2.75521 0C3.48646 0 4.1875 0.289583 4.70521 0.807292L12.5 8.60208L20.2948 0.807292C20.8114 0.290649 21.5121 0.000278692 22.2427 0C22.9731 0.00301632 23.6726 0.294484 24.1891 0.810924C24.7055 1.32736 24.997 2.02694 25 2.75729C25 3.48646 24.7104 4.1875 24.1927 4.70521L16.3979 12.5Z"/>
</svg>
