<svg viewBox="0 0 19 20" fill="none" xmlns="http://www.w3.org/2000/svg">
<path d="M9.5 0.921875C6.91917 0.921875 6.59696 0.93375 5.58363 0.978875C4.57188 1.02637 3.88312 1.1855 3.2775 1.42063C2.65287 1.66287 2.12246 1.98825 1.59442 2.51629C1.06637 3.04433 0.740208 3.57396 0.49875 4.19937C0.263625 4.805 0.103708 5.49375 0.057 6.5055C0.0095 7.51883 0 7.84104 0 10.4219C0 13.0027 0.011875 13.3249 0.057 14.3383C0.1045 15.3492 0.263625 16.0388 0.49875 16.6444C0.741 17.2682 1.06637 17.7994 1.59442 18.3275C2.12246 18.8547 2.65208 19.1817 3.2775 19.4231C3.88392 19.6575 4.57267 19.8182 5.58363 19.8649C6.59696 19.9124 6.91917 19.9219 9.5 19.9219C12.0808 19.9219 12.403 19.91 13.4164 19.8649C14.4273 19.8174 15.1169 19.6575 15.7225 19.4231C16.3463 19.1809 16.8775 18.8547 17.4056 18.3275C17.9328 17.7994 18.2598 17.2706 18.5013 16.6444C18.7356 16.0388 18.8963 15.3492 18.943 14.3383C18.9905 13.3249 19 13.0027 19 10.4219C19 7.84104 18.9881 7.51883 18.943 6.5055C18.8955 5.49454 18.7356 4.80421 18.5013 4.19937C18.259 3.57475 17.9328 3.04433 17.4056 2.51629C16.8775 1.98825 16.3487 1.66208 15.7225 1.42063C15.1169 1.1855 14.4273 1.02558 13.4164 0.978875C12.403 0.931375 12.0808 0.921875 9.5 0.921875ZM9.5 2.63188C12.0357 2.63188 12.3381 2.64454 13.3396 2.68808C14.2658 2.73162 14.7685 2.88521 15.1026 3.01662C15.5475 3.18842 15.8626 3.39425 16.1967 3.72596C16.5284 4.05846 16.7343 4.37433 16.906 4.81925C17.0359 5.15333 17.191 5.65604 17.233 6.58229C17.2781 7.58454 17.2884 7.88538 17.2884 10.4219C17.2884 12.9584 17.2765 13.26 17.2298 14.2615C17.1815 15.1877 17.0272 15.6904 16.8965 16.0245C16.7192 16.4694 16.5173 16.7845 16.1848 17.1186C15.8531 17.4503 15.5325 17.6561 15.0923 17.8279C14.7598 17.9578 14.2492 18.1129 13.323 18.1549C12.3144 18.2 12.0175 18.2103 9.47625 18.2103C6.93421 18.2103 6.63733 18.1984 5.62954 18.1517C4.7025 18.1034 4.19188 17.949 3.85938 17.8184C3.40892 17.6411 3.09938 17.4392 2.76767 17.1067C2.43438 16.775 2.22142 16.4544 2.05517 16.0142C1.92454 15.6817 1.77096 15.1711 1.72267 14.2448C1.68704 13.2473 1.67438 12.9394 1.67438 10.41C1.67438 7.87983 1.68704 7.57108 1.72267 6.56171C1.77096 5.63546 1.92454 5.12562 2.05517 4.79312C2.22142 4.34187 2.43438 4.03313 2.76767 3.69983C3.09938 3.36813 3.40892 3.15438 3.85938 2.98892C4.19188 2.8575 4.69142 2.70313 5.61767 2.65563C6.62704 2.62 6.92392 2.60813 9.46438 2.60813L9.5 2.63188ZM9.5 5.54362C6.80437 5.54362 4.62175 7.72863 4.62175 10.4219C4.62175 13.1175 6.80675 15.3001 9.5 15.3001C12.1956 15.3001 14.3783 13.1151 14.3783 10.4219C14.3783 7.72625 12.1932 5.54362 9.5 5.54362ZM9.5 13.5885C7.75042 13.5885 6.33333 12.1715 6.33333 10.4219C6.33333 8.67229 7.75042 7.25521 9.5 7.25521C11.2496 7.25521 12.6667 8.67229 12.6667 10.4219C12.6667 12.1715 11.2496 13.5885 9.5 13.5885ZM15.7114 5.35125C15.7114 5.98063 15.2 6.49125 14.5714 6.49125C13.942 6.49125 13.4314 5.97983 13.4314 5.35125C13.4314 4.72267 13.9428 4.21204 14.5714 4.21204C15.1992 4.21125 15.7114 4.72267 15.7114 5.35125Z"/>
</svg>
