<svg viewBox="0 0 19 17" fill="none" xmlns="http://www.w3.org/2000/svg">
<path d="M18.9636 2.53924C18.263 2.8472 17.5148 3.05699 16.7271 3.15278C17.5299 2.66907 18.1474 1.9067 18.4395 0.99707C17.6866 1.43645 16.8522 1.75628 15.964 1.9344C15.2546 1.1752 14.2437 0.700195 13.1211 0.700195C10.9701 0.700195 9.22608 2.44424 9.22608 4.59282C9.22608 4.90157 9.26171 5.19844 9.32662 5.48265C6.08871 5.32986 3.21892 3.77503 1.29833 1.42457C0.960292 1.99615 0.771083 2.66036 0.771083 3.38395C0.771083 4.7377 1.45983 5.92757 2.50325 6.62661C1.86438 6.60603 1.2635 6.43028 0.739417 6.13895V6.18724C0.739417 8.07536 2.07971 9.64999 3.86333 10.0086C3.53638 10.0965 3.19121 10.144 2.83733 10.144C2.58875 10.144 2.35046 10.1202 2.11217 10.0759C2.61171 11.622 4.04779 12.7494 5.757 12.781C4.427 13.8252 2.74154 14.4475 0.92625 14.4475C0.6175 14.4475 0.309542 14.4293 0 14.3944C1.73296 15.498 3.77467 16.1432 5.98263 16.1432C13.1504 16.1432 17.0652 10.2089 17.0652 5.07099C17.0652 4.90553 17.0652 4.73849 17.0533 4.57224C17.8141 4.02678 18.4783 3.33724 19.0008 2.55507L18.9636 2.53924Z"/>
</svg>
