<svg viewBox="0 0 19 17" fill="none" xmlns="http://www.w3.org/2000/svg">
<path d="M18.9818 4.0012C18.8987 5.85212 17.6051 8.38941 15.1074 11.6083C12.5202 14.9705 10.3368 16.6512 8.54446 16.6512C7.429 16.6512 6.50354 15.6268 5.73167 13.5788L4.21325 7.94687C3.64404 5.9012 3.03525 4.87679 2.38292 4.87679C2.24121 4.87679 1.74483 5.17604 0.893792 5.77295L0 4.6195C0.938125 3.793 1.86121 2.96966 2.77163 2.14316C4.02167 1.06016 4.96058 0.492538 5.58521 0.433954C7.06325 0.291454 7.97288 1.30479 8.31408 3.47237C8.68221 5.81016 8.93871 7.26366 9.08279 7.83208C9.5095 9.77166 9.97817 10.7407 10.4888 10.7407C10.8862 10.7407 11.4831 10.1105 12.2819 8.85254C13.0767 7.59458 13.5011 6.63825 13.5581 5.98037C13.6721 4.895 13.2454 4.34875 12.2803 4.34875C11.8259 4.34875 11.3565 4.44454 10.8735 4.65829C11.8125 1.59612 13.5921 0.100663 16.2268 0.195663C18.1846 0.243163 19.099 1.513 18.9921 3.99329L18.9818 4.0012Z"/>
</svg>
